<?xml version="1.0" standalone="no"?>
<!DOCTYPE svg PUBLIC "-//W3C//DTD SVG 20010904//EN"
 "http://www.w3.org/TR/2001/REC-SVG-20010904/DTD/svg10.dtd">
<svg version="1.0" xmlns="http://www.w3.org/2000/svg"
 width="229.000000pt" height="220.000000pt" viewBox="0 0 229.000000 220.000000"
 preserveAspectRatio="xMidYMid meet">
<metadata>
Created by potrace 1.15, written by Peter Selinger 2001-2017
</metadata>
<g transform="translate(0.000000,220.000000) scale(0.100000,-0.100000)"
fill="#ffffff" stroke="none">
<path d="M505 1934 c-32 -8 -70 -21 -82 -30 -13 -8 -28 -12 -32 -9 -5 3 -17
-2 -26 -11 -11 -12 -19 -14 -27 -6 -11 11 -28 0 -80 -53 -77 -79 -108 -172
-109 -327 -1 -130 27 -232 104 -382 95 -187 277 -396 467 -538 79 -59 318
-205 341 -208 46 -7 53 14 12 32 -101 44 -302 199 -398 309 -82 92 -161 240
-199 371 -29 100 -31 130 -17 290 20 226 59 326 167 427 81 76 135 95 248 89
59 -4 97 -12 140 -31 58 -27 76 -27 76 -3 0 17 -61 46 -154 75 -57 18 -92 21
-220 20 -94 0 -173 -6 -211 -15z"/>
<path d="M1355 1936 c-27 -8 -71 -24 -98 -35 -26 -11 -49 -19 -50 -18 -2 1
-11 -6 -21 -15 -10 -10 -23 -18 -30 -18 -22 0 -130 -105 -155 -152 l-24 -43
23 20 c13 11 33 28 45 38 11 10 58 44 105 76 211 142 400 137 537 -12 95 -104
133 -227 133 -425 0 -168 -33 -294 -113 -437 -56 -98 -115 -180 -186 -254 -33
-35 -58 -68 -55 -73 3 -5 -2 -8 -12 -6 -11 2 -18 -2 -17 -9 2 -7 0 -12 -5 -11
-12 4 -52 -26 -52 -39 0 -7 -6 -13 -13 -13 -8 0 -24 -11 -37 -25 -13 -14 -27
-25 -31 -25 -4 0 -50 -27 -102 -59 -51 -32 -138 -82 -193 -110 -54 -28 -96
-51 -93 -51 10 0 125 44 194 75 282 125 481 259 670 449 170 172 293 370 344
556 22 78 29 206 11 195 -6 -4 -10 6 -10 22 -1 33 -30 124 -58 179 -46 89
-158 171 -285 209 -75 23 -355 30 -422 11z"/>
<path d="M857 1613 c-39 -44 -29 -121 24 -170 35 -33 65 -43 100 -31 26 9 49
44 49 75 0 9 -9 36 -21 59 -34 71 -116 107 -152 67z"/>
<path d="M1103 1532 c-60 -129 -181 -216 -319 -231 -60 -6 -65 -9 -39 -16 96
-25 210 -117 255 -206 11 -20 28 -39 39 -42 13 -3 22 -17 27 -43 8 -46 -5 -69
-39 -69 -14 1 -23 -3 -20 -8 3 -5 18 -7 34 -5 22 4 28 1 27 -11 -2 -13 7 -16
42 -16 39 0 46 3 58 28 12 25 12 31 -5 49 -18 20 -18 21 5 14 16 -5 22 -3 22
8 0 8 5 18 12 22 7 5 9 0 6 -14 -7 -27 15 -46 45 -38 28 7 107 78 107 97 0 7
-7 2 -16 -11 -35 -52 -77 -65 -108 -34 -23 23 -20 50 12 85 31 35 77 42 97 16
10 -14 16 -12 45 18 18 19 52 42 75 52 l42 17 -71 24 c-104 34 -173 106 -217
224 l-19 53 6 -110 6 -110 -30 33 c-17 17 -37 32 -44 32 -11 0 -12 24 -6 122
5 67 7 125 6 129 -2 4 -17 -23 -35 -59z"/>
<path d="M1352 1529 c-38 -25 -72 -85 -72 -129 0 -40 39 -80 79 -80 59 0 121
76 121 149 0 74 -61 102 -128 60z"/>
<path d="M1193 881 c-6 -10 -9 -28 -7 -38 4 -13 0 -22 -10 -26 -11 -4 -13 -1
-9 10 4 10 2 14 -4 10 -19 -12 -8 25 12 39 10 8 14 14 8 14 -6 0 -23 -14 -38
-31 -77 -92 -134 -286 -88 -303 21 -8 32 10 34 54 1 20 3 27 6 15 17 -77 63
-111 83 -62 5 12 9 17 9 12 2 -21 44 -14 79 13 33 25 34 28 29 78 -3 28 -15
76 -27 105 -59 146 -57 142 -77 110z"/>
</g>
</svg>
